<mxfile host="app.diagrams.net" modified="2023-12-08T03:33:50.284Z" agent="Mozilla/5.0 (Windows NT 10.0; Win64; x64) AppleWebKit/537.36 (KHTML, like Gecko) Chrome/119.0.0.0 Safari/537.36 OPR/105.0.0.0" etag="q2pLCCtxElNbrWBQjvDO" version="22.1.7" type="github">
  <diagram name="Page-1" id="juHsVPM5JBuanwik-NY_">
    <mxGraphModel dx="952" dy="517" grid="1" gridSize="10" guides="1" tooltips="1" connect="1" arrows="1" fold="1" page="1" pageScale="1" pageWidth="850" pageHeight="1100" math="0" shadow="0">
      <root>
        <mxCell id="0" />
        <mxCell id="1" parent="0" />
        <mxCell id="CQAZwJA6fq4sO7l3aYT5-14" value="" style="rounded=0;whiteSpace=wrap;html=1;opacity=50;" vertex="1" parent="1">
          <mxGeometry x="30" y="120" width="640" height="180" as="geometry" />
        </mxCell>
        <mxCell id="CQAZwJA6fq4sO7l3aYT5-10" style="edgeStyle=orthogonalEdgeStyle;rounded=0;orthogonalLoop=1;jettySize=auto;html=1;" edge="1" parent="1" source="CQAZwJA6fq4sO7l3aYT5-1">
          <mxGeometry relative="1" as="geometry">
            <mxPoint x="120" y="200" as="targetPoint" />
          </mxGeometry>
        </mxCell>
        <mxCell id="CQAZwJA6fq4sO7l3aYT5-1" value="HL7 Receiver" style="rounded=1;whiteSpace=wrap;html=1;" vertex="1" parent="1">
          <mxGeometry x="280" y="170" width="120" height="60" as="geometry" />
        </mxCell>
        <mxCell id="CQAZwJA6fq4sO7l3aYT5-9" style="edgeStyle=orthogonalEdgeStyle;rounded=0;orthogonalLoop=1;jettySize=auto;html=1;exitX=0;exitY=1;exitDx=0;exitDy=0;" edge="1" parent="1">
          <mxGeometry relative="1" as="geometry">
            <mxPoint x="278" y="190" as="targetPoint" />
            <mxPoint x="128" y="170" as="sourcePoint" />
            <Array as="points">
              <mxPoint x="128" y="190" />
            </Array>
          </mxGeometry>
        </mxCell>
        <mxCell id="CQAZwJA6fq4sO7l3aYT5-3" value="HL7 Message" style="text;html=1;strokeColor=none;fillColor=none;align=center;verticalAlign=middle;whiteSpace=wrap;rounded=0;" vertex="1" parent="1">
          <mxGeometry x="120" y="160" width="140" height="30" as="geometry" />
        </mxCell>
        <mxCell id="CQAZwJA6fq4sO7l3aYT5-6" value="ACK" style="text;html=1;strokeColor=none;fillColor=none;align=center;verticalAlign=middle;whiteSpace=wrap;rounded=0;" vertex="1" parent="1">
          <mxGeometry x="140" y="190" width="140" height="30" as="geometry" />
        </mxCell>
        <mxCell id="CQAZwJA6fq4sO7l3aYT5-11" value="Sender" style="ellipse;whiteSpace=wrap;html=1;aspect=fixed;" vertex="1" parent="1">
          <mxGeometry x="40" y="140" width="80" height="80" as="geometry" />
        </mxCell>
        <mxCell id="CQAZwJA6fq4sO7l3aYT5-12" style="edgeStyle=orthogonalEdgeStyle;rounded=0;orthogonalLoop=1;jettySize=auto;html=1;" edge="1" parent="1" target="CQAZwJA6fq4sO7l3aYT5-13">
          <mxGeometry relative="1" as="geometry">
            <mxPoint x="490" y="190" as="targetPoint" />
            <mxPoint x="400" y="190" as="sourcePoint" />
          </mxGeometry>
        </mxCell>
        <mxCell id="CQAZwJA6fq4sO7l3aYT5-13" value="Transaction DB" style="shape=cylinder3;whiteSpace=wrap;html=1;boundedLbl=1;backgroundOutline=1;size=15;" vertex="1" parent="1">
          <mxGeometry x="460" y="150" width="90" height="90" as="geometry" />
        </mxCell>
      </root>
    </mxGraphModel>
  </diagram>
</mxfile>
